<svg id="visual" viewBox="0 0 900 600" width="900" height="600" xmlns="http://www.w3.org/2000/svg" xmlns:xlink="http://www.w3.org/1999/xlink" version="1.1"><rect x="0" y="0" width="900" height="600" fill="#001220"></rect><path d="M0 370L21.5 380.7C43 391.3 86 412.7 128.8 409.7C171.7 406.7 214.3 379.3 257.2 380.5C300 381.7 343 411.3 385.8 417.5C428.7 423.7 471.3 406.3 514.2 393C557 379.7 600 370.3 642.8 374.5C685.7 378.7 728.3 396.3 771.2 410.3C814 424.3 857 434.7 878.5 439.8L900 445L900 601L878.5 601C857 601 814 601 771.2 601C728.3 601 685.7 601 642.8 601C600 601 557 601 514.2 601C471.3 601 428.7 601 385.8 601C343 601 300 601 257.2 601C214.3 601 171.7 601 128.8 601C86 601 43 601 21.5 601L0 601Z" fill="#9e69fa"></path><path d="M0 452L21.5 443.2C43 434.3 86 416.7 128.8 415.8C171.7 415 214.3 431 257.2 437.2C300 443.3 343 439.7 385.8 432.3C428.7 425 471.3 414 514.2 411.2C557 408.3 600 413.7 642.8 415C685.7 416.3 728.3 413.7 771.2 413.3C814 413 857 415 878.5 416L900 417L900 601L878.5 601C857 601 814 601 771.2 601C728.3 601 685.7 601 642.8 601C600 601 557 601 514.2 601C471.3 601 428.7 601 385.8 601C343 601 300 601 257.2 601C214.3 601 171.7 601 128.8 601C86 601 43 601 21.5 601L0 601Z" fill="#8b58ed"></path><path d="M0 471L21.5 476.5C43 482 86 493 128.8 495.8C171.7 498.7 214.3 493.3 257.2 489.2C300 485 343 482 385.8 485C428.7 488 471.3 497 514.2 492.5C557 488 600 470 642.8 470.8C685.7 471.7 728.3 491.3 771.2 499.3C814 507.3 857 503.7 878.5 501.8L900 500L900 601L878.5 601C857 601 814 601 771.2 601C728.3 601 685.7 601 642.8 601C600 601 557 601 514.2 601C471.3 601 428.7 601 385.8 601C343 601 300 601 257.2 601C214.3 601 171.7 601 128.8 601C86 601 43 601 21.5 601L0 601Z" fill="#7747e0"></path><path d="M0 520L21.5 519C43 518 86 516 128.8 513C171.7 510 214.3 506 257.2 502.5C300 499 343 496 385.8 495.8C428.7 495.7 471.3 498.3 514.2 501.3C557 504.3 600 507.7 642.8 504.3C685.7 501 728.3 491 771.2 487.3C814 483.7 857 486.3 878.5 487.7L900 489L900 601L878.5 601C857 601 814 601 771.2 601C728.3 601 685.7 601 642.8 601C600 601 557 601 514.2 601C471.3 601 428.7 601 385.8 601C343 601 300 601 257.2 601C214.3 601 171.7 601 128.8 601C86 601 43 601 21.5 601L0 601Z" fill="#6236d3"></path><path d="M0 573L21.5 571.2C43 569.3 86 565.7 128.8 562.3C171.7 559 214.3 556 257.2 556.7C300 557.3 343 561.7 385.8 562.2C428.7 562.7 471.3 559.3 514.2 560.7C557 562 600 568 642.8 565.5C685.7 563 728.3 552 771.2 543.7C814 535.3 857 529.7 878.5 526.8L900 524L900 601L878.5 601C857 601 814 601 771.2 601C728.3 601 685.7 601 642.8 601C600 601 557 601 514.2 601C471.3 601 428.7 601 385.8 601C343 601 300 601 257.2 601C214.3 601 171.7 601 128.8 601C86 601 43 601 21.5 601L0 601Z" fill="#4b24c7"></path></svg>