<svg id="visual" viewBox="0 0 900 600" width="900" height="600" xmlns="http://www.w3.org/2000/svg" xmlns:xlink="http://www.w3.org/1999/xlink" version="1.1"><rect x="0" y="0" width="900" height="600" fill="#0f1011"></rect><path d="M0 408L25 400.8C50 393.7 100 379.3 150 357.2C200 335 250 305 300 307.2C350 309.3 400 343.7 450 363.8C500 384 550 390 600 383.3C650 376.7 700 357.3 750 352C800 346.7 850 355.3 875 359.7L900 364L900 601L875 601C850 601 800 601 750 601C700 601 650 601 600 601C550 601 500 601 450 601C400 601 350 601 300 601C250 601 200 601 150 601C100 601 50 601 25 601L0 601Z" fill="#715df2"></path><path d="M0 351L25 365.8C50 380.7 100 410.3 150 425.8C200 441.3 250 442.7 300 445C350 447.3 400 450.7 450 448.3C500 446 550 438 600 433.2C650 428.3 700 426.7 750 430.8C800 435 850 445 875 450L900 455L900 601L875 601C850 601 800 601 750 601C700 601 650 601 600 601C550 601 500 601 450 601C400 601 350 601 300 601C250 601 200 601 150 601C100 601 50 601 25 601L0 601Z" fill="#6f4de8"></path><path d="M0 420L25 429.7C50 439.3 100 458.7 150 454.8C200 451 250 424 300 410C350 396 400 395 450 401.8C500 408.7 550 423.3 600 438C650 452.7 700 467.3 750 476.3C800 485.3 850 488.7 875 490.3L900 492L900 601L875 601C850 601 800 601 750 601C700 601 650 601 600 601C550 601 500 601 450 601C400 601 350 601 300 601C250 601 200 601 150 601C100 601 50 601 25 601L0 601Z" fill="#6d3cde"></path><path d="M0 527L25 522.7C50 518.3 100 509.7 150 507.7C200 505.7 250 510.3 300 511.8C350 513.3 400 511.7 450 506.8C500 502 550 494 600 494.2C650 494.3 700 502.7 750 511.3C800 520 850 529 875 533.5L900 538L900 601L875 601C850 601 800 601 750 601C700 601 650 601 600 601C550 601 500 601 450 601C400 601 350 601 300 601C250 601 200 601 150 601C100 601 50 601 25 601L0 601Z" fill="#6c26d3"></path></svg>